<mxfile host="app.diagrams.net" modified="2024-05-08T22:28:43.938Z" agent="Mozilla/5.0 (Windows NT 10.0; Win64; x64) AppleWebKit/537.36 (KHTML, like Gecko) Chrome/124.0.0.0 Safari/537.36" etag="FVRMwQNL3jFMUZWofhNm" version="24.3.1" type="device">
  <diagram name="PÃ¡gina-1" id="b2jRFqUZYnmrYUsRm_Oo">
    <mxGraphModel dx="1050" dy="2895" grid="1" gridSize="10" guides="1" tooltips="1" connect="1" arrows="1" fold="1" page="1" pageScale="1" pageWidth="827" pageHeight="1169" math="0" shadow="0">
      <root>
        <mxCell id="0" />
        <mxCell id="1" parent="0" />
        <mxCell id="cl9YCHPWA_k3voPx7x7O-1" value="Inicio" style="ellipse;whiteSpace=wrap;html=1;" parent="1" vertex="1">
          <mxGeometry x="350" y="-2310" width="90" height="40" as="geometry" />
        </mxCell>
        <mxCell id="cl9YCHPWA_k3voPx7x7O-4" style="edgeStyle=orthogonalEdgeStyle;rounded=0;orthogonalLoop=1;jettySize=auto;html=1;exitX=0.5;exitY=1;exitDx=0;exitDy=0;entryX=0.44;entryY=-0.043;entryDx=0;entryDy=0;entryPerimeter=0;" parent="1" source="cl9YCHPWA_k3voPx7x7O-1" edge="1">
          <mxGeometry relative="1" as="geometry">
            <mxPoint x="389.20000000000005" y="-2243.01" as="targetPoint" />
          </mxGeometry>
        </mxCell>
        <mxCell id="cl9YCHPWA_k3voPx7x7O-8" style="edgeStyle=orthogonalEdgeStyle;rounded=0;orthogonalLoop=1;jettySize=auto;html=1;exitX=1;exitY=0.5;exitDx=0;exitDy=0;entryX=0;entryY=0.5;entryDx=0;entryDy=0;" parent="1" source="cl9YCHPWA_k3voPx7x7O-5" edge="1">
          <mxGeometry relative="1" as="geometry">
            <mxPoint x="530" y="-2080" as="targetPoint" />
          </mxGeometry>
        </mxCell>
        <mxCell id="cl9YCHPWA_k3voPx7x7O-22" style="edgeStyle=orthogonalEdgeStyle;rounded=0;orthogonalLoop=1;jettySize=auto;html=1;exitX=0.5;exitY=1;exitDx=0;exitDy=0;entryX=0.5;entryY=0;entryDx=0;entryDy=0;" parent="1" source="cl9YCHPWA_k3voPx7x7O-5" target="cl9YCHPWA_k3voPx7x7O-17" edge="1">
          <mxGeometry relative="1" as="geometry" />
        </mxCell>
        <mxCell id="cl9YCHPWA_k3voPx7x7O-5" value="D &amp;gt; 0 y A != 0" style="rhombus;whiteSpace=wrap;html=1;" parent="1" vertex="1">
          <mxGeometry x="340" y="-2140" width="120" height="120" as="geometry" />
        </mxCell>
        <mxCell id="cl9YCHPWA_k3voPx7x7O-11" value="Si" style="text;html=1;align=center;verticalAlign=middle;resizable=0;points=[];autosize=1;strokeColor=none;fillColor=none;" parent="1" vertex="1">
          <mxGeometry x="480" y="-2110" width="30" height="30" as="geometry" />
        </mxCell>
        <mxCell id="cl9YCHPWA_k3voPx7x7O-24" style="edgeStyle=orthogonalEdgeStyle;rounded=0;orthogonalLoop=1;jettySize=auto;html=1;exitX=0;exitY=0.5;exitDx=0;exitDy=0;" parent="1" source="cl9YCHPWA_k3voPx7x7O-17" edge="1">
          <mxGeometry relative="1" as="geometry">
            <mxPoint x="290" y="-1935" as="targetPoint" />
          </mxGeometry>
        </mxCell>
        <mxCell id="cl9YCHPWA_k3voPx7x7O-29" style="edgeStyle=orthogonalEdgeStyle;rounded=0;orthogonalLoop=1;jettySize=auto;html=1;exitX=0.5;exitY=1;exitDx=0;exitDy=0;entryX=0.5;entryY=0;entryDx=0;entryDy=0;" parent="1" source="cl9YCHPWA_k3voPx7x7O-17" target="cl9YCHPWA_k3voPx7x7O-28" edge="1">
          <mxGeometry relative="1" as="geometry" />
        </mxCell>
        <mxCell id="cl9YCHPWA_k3voPx7x7O-17" value="D == 0 y A != 0" style="rhombus;whiteSpace=wrap;html=1;" parent="1" vertex="1">
          <mxGeometry x="350" y="-1980" width="100" height="100" as="geometry" />
        </mxCell>
        <mxCell id="cl9YCHPWA_k3voPx7x7O-23" value="No" style="text;html=1;align=center;verticalAlign=middle;resizable=0;points=[];autosize=1;strokeColor=none;fillColor=none;" parent="1" vertex="1">
          <mxGeometry x="400" y="-2012" width="40" height="30" as="geometry" />
        </mxCell>
        <mxCell id="cl9YCHPWA_k3voPx7x7O-25" value="Si" style="text;html=1;align=center;verticalAlign=middle;resizable=0;points=[];autosize=1;strokeColor=none;fillColor=none;" parent="1" vertex="1">
          <mxGeometry x="320" y="-1960" width="30" height="30" as="geometry" />
        </mxCell>
        <mxCell id="cl9YCHPWA_k3voPx7x7O-32" style="edgeStyle=orthogonalEdgeStyle;rounded=0;orthogonalLoop=1;jettySize=auto;html=1;exitX=1;exitY=0.5;exitDx=0;exitDy=0;entryX=0;entryY=0.5;entryDx=0;entryDy=0;" parent="1" source="cl9YCHPWA_k3voPx7x7O-28" edge="1">
          <mxGeometry relative="1" as="geometry">
            <mxPoint x="540" y="-1805" as="targetPoint" />
          </mxGeometry>
        </mxCell>
        <mxCell id="cl9YCHPWA_k3voPx7x7O-35" style="edgeStyle=orthogonalEdgeStyle;rounded=0;orthogonalLoop=1;jettySize=auto;html=1;exitX=0.5;exitY=1;exitDx=0;exitDy=0;" parent="1" source="cl9YCHPWA_k3voPx7x7O-28" target="cl9YCHPWA_k3voPx7x7O-34" edge="1">
          <mxGeometry relative="1" as="geometry" />
        </mxCell>
        <mxCell id="cl9YCHPWA_k3voPx7x7O-28" value="A == 0 y B != 0" style="rhombus;whiteSpace=wrap;html=1;" parent="1" vertex="1">
          <mxGeometry x="355" y="-1850" width="95" height="90" as="geometry" />
        </mxCell>
        <mxCell id="cl9YCHPWA_k3voPx7x7O-30" value="No" style="text;html=1;align=center;verticalAlign=middle;resizable=0;points=[];autosize=1;strokeColor=none;fillColor=none;" parent="1" vertex="1">
          <mxGeometry x="400" y="-1882" width="40" height="30" as="geometry" />
        </mxCell>
        <mxCell id="cl9YCHPWA_k3voPx7x7O-33" value="Si" style="text;html=1;align=center;verticalAlign=middle;resizable=0;points=[];autosize=1;strokeColor=none;fillColor=none;" parent="1" vertex="1">
          <mxGeometry x="480" y="-1830" width="30" height="30" as="geometry" />
        </mxCell>
        <mxCell id="cl9YCHPWA_k3voPx7x7O-40" style="edgeStyle=orthogonalEdgeStyle;rounded=0;orthogonalLoop=1;jettySize=auto;html=1;exitX=0;exitY=0.5;exitDx=0;exitDy=0;entryX=1;entryY=0.5;entryDx=0;entryDy=0;" parent="1" source="cl9YCHPWA_k3voPx7x7O-34" edge="1">
          <mxGeometry relative="1" as="geometry">
            <mxPoint x="300" y="-1660" as="targetPoint" />
          </mxGeometry>
        </mxCell>
        <mxCell id="cl9YCHPWA_k3voPx7x7O-41" style="edgeStyle=orthogonalEdgeStyle;rounded=0;orthogonalLoop=1;jettySize=auto;html=1;exitX=1;exitY=0.5;exitDx=0;exitDy=0;" parent="1" source="cl9YCHPWA_k3voPx7x7O-34" edge="1">
          <mxGeometry relative="1" as="geometry">
            <mxPoint x="510" y="-1660" as="targetPoint" />
          </mxGeometry>
        </mxCell>
        <mxCell id="cl9YCHPWA_k3voPx7x7O-34" value="A != 0 y B == 0" style="rhombus;whiteSpace=wrap;html=1;" parent="1" vertex="1">
          <mxGeometry x="352.5" y="-1710" width="100" height="100" as="geometry" />
        </mxCell>
        <mxCell id="cl9YCHPWA_k3voPx7x7O-36" value="No" style="text;html=1;align=center;verticalAlign=middle;resizable=0;points=[];autosize=1;strokeColor=none;fillColor=none;" parent="1" vertex="1">
          <mxGeometry x="394" y="-1740" width="40" height="30" as="geometry" />
        </mxCell>
        <mxCell id="cl9YCHPWA_k3voPx7x7O-48" style="edgeStyle=orthogonalEdgeStyle;rounded=0;orthogonalLoop=1;jettySize=auto;html=1;exitX=0.5;exitY=1;exitDx=0;exitDy=0;" parent="1" target="cl9YCHPWA_k3voPx7x7O-44" edge="1">
          <mxGeometry relative="1" as="geometry">
            <Array as="points">
              <mxPoint x="240" y="-1600" />
              <mxPoint x="390" y="-1600" />
            </Array>
            <mxPoint x="240" y="-1630" as="sourcePoint" />
          </mxGeometry>
        </mxCell>
        <mxCell id="cl9YCHPWA_k3voPx7x7O-42" value="Si" style="text;html=1;align=center;verticalAlign=middle;resizable=0;points=[];autosize=1;strokeColor=none;fillColor=none;" parent="1" vertex="1">
          <mxGeometry x="455" y="-1682" width="30" height="30" as="geometry" />
        </mxCell>
        <mxCell id="cl9YCHPWA_k3voPx7x7O-43" value="No" style="text;html=1;align=center;verticalAlign=middle;resizable=0;points=[];autosize=1;strokeColor=none;fillColor=none;" parent="1" vertex="1">
          <mxGeometry x="320" y="-1682" width="40" height="30" as="geometry" />
        </mxCell>
        <mxCell id="cl9YCHPWA_k3voPx7x7O-44" value="Fin" style="ellipse;whiteSpace=wrap;html=1;" parent="1" vertex="1">
          <mxGeometry x="342.5" y="-1570" width="120" height="80" as="geometry" />
        </mxCell>
        <mxCell id="8Bu9pgcadHk7npIj4Z1O-4" value="" style="edgeStyle=orthogonalEdgeStyle;rounded=0;orthogonalLoop=1;jettySize=auto;html=1;" edge="1" parent="1" source="8Bu9pgcadHk7npIj4Z1O-1" target="cl9YCHPWA_k3voPx7x7O-5">
          <mxGeometry relative="1" as="geometry" />
        </mxCell>
        <mxCell id="8Bu9pgcadHk7npIj4Z1O-1" value="Calcular D = B * B - 4 * A * C" style="rounded=0;whiteSpace=wrap;html=1;" vertex="1" parent="1">
          <mxGeometry x="311.5" y="-2240" width="167" height="60" as="geometry" />
        </mxCell>
        <mxCell id="8Bu9pgcadHk7npIj4Z1O-7" value="" style="edgeStyle=orthogonalEdgeStyle;rounded=0;orthogonalLoop=1;jettySize=auto;html=1;" edge="1" parent="1" source="8Bu9pgcadHk7npIj4Z1O-5" target="8Bu9pgcadHk7npIj4Z1O-6">
          <mxGeometry relative="1" as="geometry" />
        </mxCell>
        <mxCell id="8Bu9pgcadHk7npIj4Z1O-5" value="&lt;div&gt;Calcular d_sqrt = sqrt(D)&lt;/div&gt;&lt;div&gt;&lt;br&gt;&lt;/div&gt;&lt;div&gt;Calcular x1 = (-B + d_sqrt) / (2 * A)&lt;/div&gt;&lt;div&gt;&lt;br&gt;&lt;/div&gt;&lt;div&gt;Calcular x2 = (-B - d_sqrt) / (2 * A)&lt;/div&gt;" style="rounded=0;whiteSpace=wrap;html=1;" vertex="1" parent="1">
          <mxGeometry x="530" y="-2130" width="210" height="100" as="geometry" />
        </mxCell>
        <mxCell id="8Bu9pgcadHk7npIj4Z1O-9" style="edgeStyle=orthogonalEdgeStyle;rounded=0;orthogonalLoop=1;jettySize=auto;html=1;exitX=1;exitY=0.5;exitDx=0;exitDy=0;entryX=0.5;entryY=1;entryDx=0;entryDy=0;" edge="1" parent="1" source="8Bu9pgcadHk7npIj4Z1O-6" target="cl9YCHPWA_k3voPx7x7O-44">
          <mxGeometry relative="1" as="geometry">
            <Array as="points">
              <mxPoint x="760" y="-1960" />
              <mxPoint x="760" y="-1470" />
              <mxPoint x="403" y="-1470" />
            </Array>
          </mxGeometry>
        </mxCell>
        <mxCell id="8Bu9pgcadHk7npIj4Z1O-6" value="Imprimir x1 y x2" style="shape=parallelogram;perimeter=parallelogramPerimeter;whiteSpace=wrap;html=1;fixedSize=1;" vertex="1" parent="1">
          <mxGeometry x="575" y="-1990" width="120" height="60" as="geometry" />
        </mxCell>
        <mxCell id="8Bu9pgcadHk7npIj4Z1O-13" value="" style="edgeStyle=orthogonalEdgeStyle;rounded=0;orthogonalLoop=1;jettySize=auto;html=1;" edge="1" parent="1" source="8Bu9pgcadHk7npIj4Z1O-10" target="8Bu9pgcadHk7npIj4Z1O-12">
          <mxGeometry relative="1" as="geometry" />
        </mxCell>
        <mxCell id="8Bu9pgcadHk7npIj4Z1O-10" value="&lt;div&gt;Calcular d_sqrt = sqrt(D)&lt;/div&gt;&lt;div&gt;&lt;br&gt;&lt;/div&gt;&lt;div&gt;Calcular x1 = (-B + d_sqrt) / (2 * A)&lt;/div&gt;" style="rounded=0;whiteSpace=wrap;html=1;" vertex="1" parent="1">
          <mxGeometry x="90" y="-1995" width="200" height="100" as="geometry" />
        </mxCell>
        <mxCell id="8Bu9pgcadHk7npIj4Z1O-14" style="edgeStyle=orthogonalEdgeStyle;rounded=0;orthogonalLoop=1;jettySize=auto;html=1;exitX=0;exitY=0.5;exitDx=0;exitDy=0;entryX=0;entryY=0.5;entryDx=0;entryDy=0;" edge="1" parent="1" source="8Bu9pgcadHk7npIj4Z1O-12" target="cl9YCHPWA_k3voPx7x7O-44">
          <mxGeometry relative="1" as="geometry">
            <Array as="points">
              <mxPoint x="100" y="-1822" />
              <mxPoint x="100" y="-1530" />
            </Array>
          </mxGeometry>
        </mxCell>
        <mxCell id="8Bu9pgcadHk7npIj4Z1O-12" value="Imprimir x1" style="shape=parallelogram;perimeter=parallelogramPerimeter;whiteSpace=wrap;html=1;fixedSize=1;" vertex="1" parent="1">
          <mxGeometry x="130" y="-1852" width="120" height="60" as="geometry" />
        </mxCell>
        <mxCell id="8Bu9pgcadHk7npIj4Z1O-16" style="edgeStyle=orthogonalEdgeStyle;rounded=0;orthogonalLoop=1;jettySize=auto;html=1;exitX=1;exitY=0.5;exitDx=0;exitDy=0;entryX=1;entryY=0.5;entryDx=0;entryDy=0;" edge="1" parent="1" source="8Bu9pgcadHk7npIj4Z1O-15" target="cl9YCHPWA_k3voPx7x7O-44">
          <mxGeometry relative="1" as="geometry">
            <Array as="points">
              <mxPoint x="680" y="-1805" />
              <mxPoint x="680" y="-1530" />
            </Array>
          </mxGeometry>
        </mxCell>
        <mxCell id="8Bu9pgcadHk7npIj4Z1O-15" value="Imprimir (-C) / B" style="shape=parallelogram;perimeter=parallelogramPerimeter;whiteSpace=wrap;html=1;fixedSize=1;" vertex="1" parent="1">
          <mxGeometry x="530" y="-1835" width="120" height="60" as="geometry" />
        </mxCell>
        <mxCell id="8Bu9pgcadHk7npIj4Z1O-18" style="edgeStyle=orthogonalEdgeStyle;rounded=0;orthogonalLoop=1;jettySize=auto;html=1;exitX=0.5;exitY=1;exitDx=0;exitDy=0;entryX=1;entryY=0;entryDx=0;entryDy=0;" edge="1" parent="1" source="8Bu9pgcadHk7npIj4Z1O-17" target="cl9YCHPWA_k3voPx7x7O-44">
          <mxGeometry relative="1" as="geometry" />
        </mxCell>
        <mxCell id="8Bu9pgcadHk7npIj4Z1O-17" value="Imprimir sqrt(C / A)" style="shape=parallelogram;perimeter=parallelogramPerimeter;whiteSpace=wrap;html=1;fixedSize=1;" vertex="1" parent="1">
          <mxGeometry x="500" y="-1690" width="140" height="60" as="geometry" />
        </mxCell>
        <mxCell id="8Bu9pgcadHk7npIj4Z1O-19" value="Imprimir&amp;nbsp; &quot; &quot;" style="shape=parallelogram;perimeter=parallelogramPerimeter;whiteSpace=wrap;html=1;fixedSize=1;" vertex="1" parent="1">
          <mxGeometry x="192" y="-1690" width="120" height="60" as="geometry" />
        </mxCell>
      </root>
    </mxGraphModel>
  </diagram>
</mxfile>
